<?xml version="1.0" encoding="iso-8859-1"?>
<!-- Uploaded to: SVG Repo, www.svgrepo.com, Generator: SVG Repo Mixer Tools -->
<svg version="1.1" id="Layer_1" xmlns="http://www.w3.org/2000/svg" xmlns:xlink="http://www.w3.org/1999/xlink" 
	 viewBox="0 0 297 297" xml:space="preserve">
<g>
	<g>
		<g>
			<g>
				<circle style="fill:#F86E51;" cx="148.5" cy="148.5" r="148.5"/>
			</g>
		</g>
	</g>
	<path style="fill:#D14D37;" d="M295.243,125.611l-72.581-72.588L74.408,243.998l51.255,51.254
		c7.445,1.149,15.071,1.748,22.837,1.748c82.014,0,148.5-66.486,148.5-148.5C297,140.715,296.398,133.072,295.243,125.611z"/>
	<g>
		<path style="fill:#32373B;" d="M83.633,247.833h129.735c7.253,0,13.133-5.88,13.133-13.133V62.299
			c0-7.253-5.88-13.133-13.133-13.133H83.633c-7.253,0-13.133,5.88-13.133,13.133V234.7C70.5,241.954,76.38,247.833,83.633,247.833z
			"/>
	</g>
	<g>
		<rect x="82.5" y="66" style="fill:#BFF796;" width="132" height="49.5"/>
	</g>
	<g>
		<g>
			<rect x="190.979" y="128.99" style="fill:#D0D5D9;" width="23.021" height="23.021"/>
		</g>
		<g>
			<rect x="155.351" y="128.99" style="fill:#D0D5D9;" width="23.021" height="23.021"/>
		</g>
		<g>
			<rect x="119.176" y="128.99" style="fill:#D0D5D9;" width="23.021" height="23.021"/>
		</g>
		<g>
			<rect x="83" y="128.99" style="fill:#D0D5D9;" width="23.021" height="23.021"/>
		</g>
	</g>
	<g>
		<g>
			<rect x="155.351" y="168.484" style="fill:#D0D5D9;" width="23.021" height="23.021"/>
		</g>
		<g>
			<rect x="119.176" y="168.484" style="fill:#D0D5D9;" width="23.021" height="23.021"/>
		</g>
		<g>
			<rect x="83" y="168.484" style="fill:#D0D5D9;" width="23.021" height="23.021"/>
		</g>
	</g>
	<g>
		<g>
			<rect x="190.979" y="168.484" style="fill:#D0D5D9;" width="23.021" height="62.516"/>
		</g>
		<g>
			<rect x="155.351" y="207.979" style="fill:#D0D5D9;" width="23.021" height="23.021"/>
		</g>
		<g>
			<rect x="119.176" y="207.979" style="fill:#D0D5D9;" width="23.021" height="23.021"/>
		</g>
		<g>
			<rect x="83" y="207.979" style="fill:#D0D5D9;" width="23.021" height="23.021"/>
		</g>
	</g>
</g>
</svg>